:SAMPLES-PER-SECOND 24
:FULLY-SPECIFIED
:DEGREES
161
root  -3.30454 39.9426 -0.0771608 169.807 -18.0073 -163.191
RightUpLeg  -60.5407 -8.13646 -23.7773
RightLeg  13.1182 -11.5709 -5.07562
RightFoot  -11.8222 -0.043092 10.7996
RightToes  -2.09809e-008 3.77894e-005 6.81332e-007
Spine  9.03973 -0.987325 -2.43093
Spine1  6.35185 -4.49716 20.735
HEad  -23.9082 2.94465 4.72555
LeftShoulder1  5.9058 -11.8258 -32.5274
LeftArm  -4.86073 12.8312 -20.9627
LeftForeArm  156.42 -72.6575 -147.109
LeftHand  -0.286111 -0.87801 5.42076
RightShoulder  3.81593 6.47331 32.3622
RightArm  11.5666 -21.9752 25.8066
RightForeArm  153.796 73.2753 145.428
RightHand  -0.695696 8.57691 -6.14539
LeftUpLeg  -3.39189 -20.9869 11.3177
LeftLeg  23.6839 7.51507 3.92843
LeftFoot  -13.9038 0.06879 -0.654276
LeftToes  1.24773e-006 1.46318e-008 1.32523e-009
162
root  -3.18049 39.8909 -0.17978 166.865 -17.0789 -161.063
RightUpLeg  -67.773 -8.50998 -21.2911
RightLeg  31.5193 -11.4481 -7.51477
RightFoot  -11.6138 -0.0553393 9.61418
RightToes  -2.09809e-008 3.77894e-005 6.81332e-007
Spine  12.2893 -1.42589 0.478882
Spine1  7.19688 -5.28571 20.465
HEad  -25.3355 3.69885 5.02973
LeftShoulder1  6.04238 -11.9961 -32.9854
LeftArm  -3.28839 9.52655 -22.2393
LeftForeArm  156.48 -72.8589 -146.726
LeftHand  -0.28234 -1.19486 5.11949
RightShoulder  3.8686 6.5605 32.5541
RightArm  11.1366 -22.0811 26.9519
RightForeArm  153.705 73.2828 145.395
RightHand  -0.531113 8.90482 -4.68956
LeftUpLeg  -1.27853 -21.2348 12.8979
LeftLeg  25.2961 7.81533 4.34296
LeftFoot  -14.8237 0.0531301 -1.16432
LeftToes  1.24773e-006 1.46318e-008 1.32523e-009
163
root  -3.07415 39.9488 -0.2921 164.449 -16.7285 -158.806
RightUpLeg  -73.2318 -10.1432 -14.8764
RightLeg  49.9363 -10.8009 -13.7692
RightFoot  -10.7726 -0.0995363 5.30912
RightToes  -2.09809e-008 3.77894e-005 6.81332e-007
Spine  14.7553 -2.13371 3.17434
Spine1  7.74312 -6.5061 20.5509
HEad  -24.5472 4.04495 6.18146
LeftShoulder1  6.26914 -12.2155 -33.877
LeftArm  -1.01864 8.34601 -24.4447
LeftForeArm  157.484 -72.9092 -146.788
LeftHand  -0.263198 -1.47138 4.61053
RightShoulder  3.88081 6.54229 32.7459
RightArm  11.2653 -21.1812 27.6057
RightForeArm  153.705 73.8135 144.244
RightHand  -0.481291 9.2708 -4.19476
LeftUpLeg  0.605996 -21.9742 14.7373
LeftLeg  25.6284 8.11984 4.5564
LeftFoot  -15.0594 0.0368316 -1.64537
LeftToes  1.24773e-006 1.46318e-008 1.32523e-009
164
root  -2.98652 40.0905 -0.555454 163.408 -16.3966 -157.569
RightUpLeg  -77.3141 -10.2822 -10.1077
RightLeg  66.2925 -7.47237 -18.4979
RightFoot  -10.6672 -0.0874957 2.6545
RightToes  -2.09809e-008 3.77894e-005 6.81332e-007
Spine  16.6464 -2.40686 5.01878
Spine1  6.33831 -6.82051 20.8126
HEad  -21.5596 2.98754 8.42429
LeftShoulder1  6.62631 -12.5941 -35.1379
LeftArm  2.70381 9.63216 -27.2907
LeftForeArm  159.03 -72.6396 -147.557
LeftHand  -0.230065 -1.8084 3.88548
RightShoulder  3.8578 6.47052 32.7933
RightArm  10.7828 -21.4228 27.3095
RightForeArm  153.92 73.7746 144.367
RightHand  -0.463201 9.40749 -4.02012
LeftUpLeg  2.12404 -22.1551 15.9267
LeftLeg  24.8642 8.51362 4.61363
LeftFoot  -14.6059 0.031955 -1.9478
LeftToes  1.24773e-006 1.46318e-008 1.32523e-009
165
root  -2.87741 40.1259 -1.30916 163.976 -15.6275 -158.28
RightUpLeg  -79.5147 -8.72452 -7.39981
RightLeg  79.5002 -2.34302 -16.5598
RightFoot  -9.37168 -0.122902 3.32506
RightToes  -2.09809e-008 3.77894e-005 6.81332e-007
Spine  16.4325 -2.15375 5.49004
Spine1  4.65543 -5.86205 19.6764
HEad  -18.6032 0.408012 11.1897
LeftShoulder1  6.98599 -12.9784 -36.334
LeftArm  7.05699 11.9716 -29.949
LeftForeArm  161.025 -71.909 -149.185
LeftHand  -0.178336 -2.33475 2.88144
RightShoulder  3.7321 6.32747 32.0761
RightArm  9.81797 -22.4432 27.1779
RightForeArm  153.353 73.2916 145.316
RightHand  -0.521568 8.93988 -4.60591
LeftUpLeg  3.55932 -20.8195 15.7227
LeftLeg  24.1925 8.67493 4.56659
LeftFoot  -15.2104 0.0108283 -2.36638
LeftToes  1.24773e-006 1.46318e-008 1.32523e-009
166
root  -2.81836 40.0751 -2.20438 166.197 -14.8693 -160.331
RightUpLeg  -79.0148 -7.23769 -5.31614
RightLeg  87.929 0.263067 -11.9594
RightFoot  -7.87291 -0.202301 4.90058
RightToes  -2.09809e-008 3.77894e-005 6.81332e-007
Spine  13.3113 -1.83866 5.08829
Spine1  5.0286 -5.24468 17.7444
HEad  -16.8209 -2.39825 13.8775
LeftShoulder1  7.15035 -13.1183 -36.9474
LeftArm  10.4627 14.5151 -31.6841
LeftForeArm  164.426 -70.4623 -151.975
LeftHand  -0.0760483 -3.01528 1.28252
RightShoulder  3.63553 6.2198 31.4997
RightArm  9.1772 -22.6758 26.9912
RightForeArm  153.64 72.9819 146.005
RightHand  -0.585433 8.56562 -5.23784
LeftUpLeg  4.12368 -19.2032 14.3648
LeftLeg  23.2934 9.09825 4.59441
LeftFoot  -16.1241 -0.0174821 -2.73159
LeftToes  1.24773e-006 1.46318e-008 1.32523e-009
167
root  -2.77471 39.982 -3.05275 168.488 -14.766 -162.526
RightUpLeg  -75.11 -7.85598 -2.22929
RightLeg  91.21 0.834849 -9.41673
RightFoot  -6.2734 -0.288057 5.5392
RightToes  -2.09809e-008 3.77894e-005 6.81332e-007
Spine  9.54109 -1.8275 4.0493
Spine1  6.77132 -5.49697 16.8038
HEad  -16.1503 -4.75956 16.0436
LeftShoulder1  7.18658 -13.1225 -37.1481
LeftArm  12.7023 16.4448 -32.8099
LeftForeArm  166.82 -69.4446 -153.721
LeftHand  0.00839194 -3.57674 0.14345
RightShoulder  3.57195 6.11574 31.2412
RightArm  7.63265 -22.4125 26.7718
RightForeArm  154.43 72.9528 146.192
RightHand  -0.55614 8.84151 -4.91088
LeftUpLeg  4.33205 -18.4383 12.6258
LeftLeg  22.4409 9.4522 4.58751
LeftFoot  -16.8909 -0.0409703 -2.93258
LeftToes  1.24773e-006 1.46318e-008 1.32523e-009
168
root  -2.65149 39.7746 -3.94381 170.399 -14.5331 -165.123
RightUpLeg  -68.3426 -10.2517 0.727878
RightLeg  88.3743 0.355619 -8.90756
RightFoot  -5.58614 -0.336605 5.94359
RightToes  -2.09809e-008 3.77894e-005 6.81332e-007
Spine  7.02847 -1.7177 1.80464
Spine1  7.85202 -5.7485 17.1018
HEad  -16.2441 -6.63208 17.2792
LeftShoulder1  7.26068 -13.198 -37.3876
LeftArm  14.5641 17.3629 -33.6536
LeftForeArm  166.074 -69.8156 -153.12
LeftHand  -0.0123731 -3.63359 0.415138
RightShoulder  3.50721 6.0052 30.9896
RightArm  5.42337 -22.9738 26.4919
RightForeArm  153.941 72.9799 146.058
RightHand  -0.527073 8.85624 -4.67188
LeftUpLeg  4.51241 -17.305 10.5495
LeftLeg  22.6666 9.28142 4.55585
LeftFoot  -18.4155 -0.0988322 -3.3803
LeftToes  1.24773e-006 1.46318e-008 1.32523e-009
169
root  -2.46737 39.5101 -4.85513 172.687 -13.6013 -168.309
RightUpLeg  -60.3461 -13.0208 2.3664
RightLeg  79.175 -1.4605 -10.9349
RightFoot  -7.41464 -0.268667 6.37377
RightToes  -2.09809e-008 3.77894e-005 6.81332e-007
Spine  4.4478 -1.53351 -1.45729
Spine1  9.00055 -6.13756 18.3088
HEad  -16.8807 -7.56558 17.4849
LeftShoulder1  7.37187 -13.3258 -37.7065
LeftArm  15.9944 17.0789 -34.2491
LeftForeArm  163.798 -70.733 -151.491
LeftHand  -0.0643206 -3.32877 1.1002
RightShoulder  3.44871 5.92544 30.6777
RightArm  4.50726 -24.5234 26.3304
RightForeArm  153.341 73.1661 145.577
RightHand  -0.597737 8.36897 -5.40945
LeftUpLeg  4.62272 -15.4736 8.07485
LeftLeg  22.812 9.24185 4.56744
LeftFoot  -19.7354 -0.157547 -3.76462
LeftToes  1.24773e-006 1.46318e-008 1.32523e-009
170
root  -2.23699 39.2101 -5.8969 175.394 -12.2469 -171.65
RightUpLeg  -52.2914 -15.315 2.55975
RightLeg  65.2873 -5.97967 -14.4274
RightFoot  -8.6023 -0.207121 6.19365
RightToes  -2.09809e-008 3.77894e-005 6.81332e-007
Spine  1.43083 -1.84167 -4.65867
Spine1  10.0193 -6.81485 19.1961
HEad  -17.7411 -7.38583 16.9826
LeftShoulder1  7.487 -13.4447 -38.0638
LeftArm  16.9932 15.8357 -34.6123
LeftForeArm  162.752 -71.1755 -150.657
LeftHand  -0.0718217 -3.22894 1.20622
RightShoulder  3.40483 5.85392 30.4855
RightArm  4.31116 -27.2547 26.4532
RightForeArm  153.959 73.3441 145.308
RightHand  -0.695521 8.56686 -6.14707
LeftUpLeg  5.01189 -13.8696 5.46783
LeftLeg  22.092 9.51384 4.54825
LeftFoot  -20.8747 -0.223815 -4.19567
LeftToes  1.24773e-006 1.46318e-008 1.32523e-009
171
root  -1.93046 38.8152 -7.14159 178.415 -10.0987 -175.068
RightUpLeg  -44.7572 -15.556 0.809002
RightLeg  48.8413 -11.8007 -14.3916
RightFoot  -8.23508 -0.195647 5.14692
RightToes  -2.09809e-008 3.77894e-005 6.81332e-007
Spine  -1.79165 -2.84991 -6.95046
Spine1  10.2819 -7.48887 18.3529
HEad  -18.222 -5.83771 15.8493
LeftShoulder1  7.49881 -13.4568 -38.1007
LeftArm  17.8 14.2245 -35.1556
LeftForeArm  162.615 -71.4731 -150.156
LeftHand  -0.065509 -3.38355 1.11241
RightShoulder  3.42985 5.87052 30.6912
RightArm  3.20608 -30.5106 26.3582
RightForeArm  154.78 73.2373 145.668
RightHand  -0.680294 9.0645 -5.83651
LeftUpLeg  5.18197 -11.8967 2.89834
LeftLeg  21.6235 9.54027 4.47156
LeftFoot  -23.0716 -0.430669 -5.53591
LeftToes  1.24773e-006 1.46318e-008 1.32523e-009
172
root  -1.50875 38.3489 -8.54262 -178.489 -7.08705 -178.456
RightUpLeg  -37.8594 -12.8698 -2.75148
RightLeg  32.0731 -15.164 -10.255
RightFoot  -9.72522 -0.134248 4.91928
RightToes  -2.09809e-008 3.77894e-005 6.81332e-007
Spine  -4.79271 -4.38297 -9.40611
Spine1  9.64806 -8.58568 18.2984
HEad  -17.5911 -2.76326 13.389
LeftShoulder1  7.4651 -13.415 -38.0142
LeftArm  18.3722 12.7205 -36.0132
LeftForeArm  162.119 -71.9338 -149.307
LeftHand  -0.0659052 -3.47301 1.11264
RightShoulder  3.39447 5.82105 30.5024
RightArm  2.1542 -33.4444 25.7566
RightForeArm  155.738 72.9481 146.415
RightHand  -0.557401 9.1001 -4.84441
LeftUpLeg  5.23243 -9.14655 0.411078
LeftLeg  21.3722 9.59036 4.45749
LeftFoot  -24.5806 -0.656283 -6.92827
LeftToes  1.24773e-006 1.46318e-008 1.32523e-009
173
root  -1.01563 38.0145 -10.0125 -176.146 -3.48955 179.127
RightUpLeg  -32.522 -8.94276 -5.67144
RightLeg  19.2868 -16.7968 -6.59616
RightFoot  -10.0162 -0.133249 5.40792
RightToes  -2.09809e-008 3.77894e-005 6.81332e-007
Spine  -6.54779 -6.12153 -10.8194
Spine1  8.29727 -10.2635 19.8654
HEad  -16.1804 1.80616 9.56778
LeftShoulder1  7.52215 -13.473 -38.1919
LeftArm  18.5436 11.3606 -36.7229
LeftForeArm  161.308 -72.2956 -148.546
LeftHand  -0.0759142 -3.52727 1.23988
RightShoulder  3.25667 5.633 29.7303
RightArm  2.06048 -35.6298 24.4134
RightForeArm  156.27 72.6425 147.099
RightHand  -0.509029 9.27073 -4.41213
LeftUpLeg  6.45507 -6.11883 -1.27024
LeftLeg  19.9866 9.61487 4.27923
LeftFoot  -24.1928 -0.760843 -8.02859
LeftToes  1.24773e-006 1.46318e-008 1.32523e-009
174
root  -0.56777 37.9913 -11.4977 -174.942 2.04131 179.019
RightUpLeg  -30.5607 -6.28192 -4.61911
RightLeg  14.1214 -15.9036 -4.4297
RightFoot  -4.64996 -0.318308 4.91886
RightToes  -2.09809e-008 3.77894e-005 6.81332e-007
Spine  -6.53148 -7.16835 -6.96111
Spine1  6.64835 -11.3872 19.7944
HEad  -15.5165 8.33003 4.81135
LeftShoulder1  7.58154 -13.5584 -38.3129
LeftArm  17.6985 10.5497 -37.1121
LeftForeArm  160.513 -72.6874 -147.699
LeftHand  -0.0813042 -3.62644 1.30303
RightShoulder  3.17213 5.51944 29.2325
RightArm  2.45032 -35.2438 21.6942
RightForeArm  155.212 72.5383 147.137
RightHand  -0.610846 9.05812 -5.28395
LeftUpLeg  7.6831 -0.708084 -0.409526
LeftLeg  20.5277 7.88428 3.63319
LeftFoot  -23.7641 -1.13063 -11.5176
LeftToes  1.24773e-006 1.46318e-008 1.32523e-009
